<svg xmlns="http://www.w3.org/2000/svg" xmlns:xlink="http://www.w3.org/1999/xlink" width="57" height="57" version="1.1" style="shape-rendering:geometricPrecision;text-rendering:geometricPrecision;image-rendering:optimizeQuality;fill-rule:evenodd;clip-rule:evenodd"><g><path style="opacity:.966" fill="#e0f2fe" d="M 15.5,-0.5 C 23.8333,-0.5 32.1667,-0.5 40.5,-0.5C 48.1667,2.5 53.5,7.83333 56.5,15.5C 56.5,26.1667 56.5,36.8333 56.5,47.5C 54.4134,51.9217 51.08,54.9217 46.5,56.5C 44.5,56.5 42.5,56.5 40.5,56.5C 37.0171,54.2238 33.1838,52.5571 29,51.5C 24.6485,52.2656 20.8152,53.9323 17.5,56.5C 14.8333,56.5 12.1667,56.5 9.5,56.5C 5.14152,54.1415 1.80818,50.8082 -0.5,46.5C -0.5,36.5 -0.5,26.5 -0.5,16.5C 2.75005,8.91535 8.08339,3.24868 15.5,-0.5 Z"/></g><g><path style="opacity:1" fill="#1a7fbf" d="M 31.5,16.5 C 28.6802,16.7525 26.0135,16.2525 23.5,15C 24.3366,13.9887 24.67,12.8221 24.5,11.5C 28.5469,9.07604 31.8802,10.076 34.5,14.5C 33.6431,15.4252 32.6431,16.0919 31.5,16.5 Z"/></g><g><path style="opacity:1" fill="#3595cd" d="M 24.5,11.5 C 24.67,12.8221 24.3366,13.9887 23.5,15C 26.0135,16.2525 28.6802,16.7525 31.5,16.5C 29.1667,19.1667 26.8333,21.8333 24.5,24.5C 20.9812,24.7407 18.3145,23.4074 16.5,20.5C 18.4528,16.8797 21.1195,13.8797 24.5,11.5 Z"/></g><g><path style="opacity:1" fill="#60b2df" d="M 16.5,20.5 C 18.3145,23.4074 20.9812,24.7407 24.5,24.5C 22.6418,26.8831 21.3084,29.5498 20.5,32.5C 16.5119,32.7736 13.8452,31.1069 12.5,27.5C 13.0787,24.6689 14.412,22.3356 16.5,20.5 Z"/></g><g><path style="opacity:1" fill="#3193cc" d="M 44.5,29.5 C 43.7961,31.3442 42.4628,31.8442 40.5,31C 38.2827,29.7246 35.9494,28.7246 33.5,28C 34.2524,27.3292 34.5858,26.4959 34.5,25.5C 36.4734,24.5133 38.4734,23.5133 40.5,22.5C 42.6002,24.3637 43.9335,26.6971 44.5,29.5 Z"/></g><g><path style="opacity:1" fill="#88cbef" d="M 12.5,27.5 C 13.8452,31.1069 16.5119,32.7736 20.5,32.5C 19.9111,34.3519 19.2444,36.1852 18.5,38C 15.3819,38.8725 12.3819,40.0392 9.5,41.5C 8.43258,36.374 9.43258,31.7073 12.5,27.5 Z"/></g><g><path style="opacity:1" fill="#4ca4d7" d="M 34.5,25.5 C 34.5858,26.4959 34.2524,27.3292 33.5,28C 35.9494,28.7246 38.2827,29.7246 40.5,31C 42.4628,31.8442 43.7961,31.3442 44.5,29.5C 47.042,33.1447 47.7087,37.1447 46.5,41.5C 42.6862,39.5621 38.6862,38.2287 34.5,37.5C 34.755,34.01 33.4217,31.3433 30.5,29.5C 31.5213,27.812 32.8546,26.4787 34.5,25.5 Z"/></g></svg>