<svg id="svg" version="1.1" xmlns="http://www.w3.org/2000/svg" xmlns:xlink="http://www.w3.org/1999/xlink" width="400" height="378.0694980694981" viewBox="0, 0, 400,378.0694980694981"><g id="svgg"><path id="path0" d="M196.594 68.893 C 189.699 69.795,184.793 72.539,171.410 82.979 C 149.099 100.386,125.652 125.245,111.584 146.409 L 108.196 151.506 109.001 152.044 C 109.444 152.340,110.004 152.584,110.245 152.585 C 110.485 152.586,113.891 154.306,117.812 156.406 C 126.817 161.230,141.059 168.615,148.880 172.515 C 152.193 174.167,155.251 175.758,155.676 176.050 C 157.575 177.358,165.360 181.134,165.472 180.801 C 165.758 179.953,175.002 166.286,177.766 162.625 C 197.413 136.607,221.747 115.364,247.611 101.651 L 249.508 100.645 247.132 98.423 C 237.358 89.283,218.315 74.307,213.052 71.622 C 208.428 69.263,201.963 68.191,196.594 68.893 M289.575 154.951 C 264.900 161.554,240.874 174.309,221.132 191.285 C 210.416 200.500,210.530 201.185,223.663 206.488 C 226.448 207.612,230.005 209.092,231.568 209.776 L 234.410 211.019 236.029 214.874 C 237.461 218.284,237.762 218.776,238.642 219.144 C 239.188 219.372,241.142 220.389,242.984 221.403 C 244.825 222.416,251.475 225.850,257.761 229.034 C 264.046 232.217,269.405 235.010,269.669 235.241 C 269.932 235.472,271.780 236.430,273.773 237.371 C 275.767 238.311,277.948 239.428,278.619 239.851 C 279.290 240.275,284.254 242.865,289.649 245.606 C 295.045 248.348,301.822 251.847,304.710 253.381 C 307.598 254.915,311.617 256.986,313.640 257.983 C 315.663 258.980,317.678 260.052,318.118 260.364 C 318.559 260.677,322.631 262.802,327.167 265.086 L 335.415 269.240 335.790 267.670 C 336.533 264.553,336.358 258.511,335.391 253.900 C 328.231 219.766,315.267 187.504,297.110 158.630 C 293.700 153.208,294.545 153.621,289.575 154.951 " stroke="none" fill="#3899d0" fill-rule="evenodd"></path><path id="path1" d="M202.760 134.440 L 201.853 135.444 202.857 134.537 C 203.409 134.038,203.861 133.586,203.861 133.533 C 203.861 133.294,203.606 133.504,202.760 134.440 M195.965 141.236 L 195.058 142.239 196.062 141.332 C 196.614 140.833,197.066 140.381,197.066 140.328 C 197.066 140.090,196.811 140.300,195.965 141.236 M78.036 209.035 C 73.438 221.042,67.273 241.841,65.960 249.774 L 65.748 251.053 77.430 257.135 C 83.855 260.481,90.363 263.900,91.892 264.734 C 96.105 267.032,96.369 267.069,99.806 265.832 C 108.996 262.524,115.797 260.469,126.624 257.729 C 131.626 256.463,135.744 255.396,135.774 255.358 C 135.805 255.320,136.206 253.691,136.666 251.737 C 137.640 247.600,140.282 237.985,140.984 236.023 C 141.450 234.719,141.646 233.416,141.210 234.518 C 141.018 235.001,140.775 234.930,138.943 233.860 C 137.223 232.854,134.493 231.440,127.722 228.045 C 122.892 225.624,100.154 213.761,98.842 212.977 C 96.491 211.575,92.370 209.551,91.373 209.311 C 90.918 209.201,90.362 208.928,90.137 208.704 C 89.757 208.323,80.640 203.552,80.294 203.552 C 80.207 203.552,79.191 206.019,78.036 209.035 " stroke="none" fill="#85caef" fill-rule="evenodd"></path><path id="path2" d="M151.197 0.199 C 73.167 6.876,12.688 62.863,1.561 138.720 C -0.039 149.631,-0.033 149.312,0.072 219.614 L 0.170 284.942 0.873 289.266 C 6.906 326.375,30.568 355.445,65.328 368.456 C 95.311 379.678,126.529 376.164,155.074 358.354 C 180.126 342.722,203.508 338.573,229.353 345.174 C 240.043 347.905,247.591 351.463,260.849 360.024 C 316.858 396.190,393.095 359.209,399.667 292.688 C 400.230 286.984,400.119 150.108,399.546 143.629 C 392.922 68.780,336.552 10.690,261.004 0.856 C 256.336 0.249,157.529 -0.342,151.197 0.199 M207.104 69.144 C 212.206 70.355,213.876 71.279,222.239 77.518 C 231.931 84.747,239.915 91.338,246.945 97.915 C 250.038 100.809,250.049 100.721,246.332 102.672 C 209.013 122.268,171.390 163.486,153.265 204.633 C 145.891 221.373,141.343 234.318,137.471 249.594 L 135.949 255.598 130.291 257.025 C 110.792 261.940,90.562 269.159,74.440 276.955 L 69.035 279.569 68.336 278.704 C 65.369 275.030,63.508 268.881,63.493 262.703 C 63.471 254.036,69.189 232.238,76.984 211.274 C 78.342 207.622,79.634 204.147,79.853 203.552 C 82.737 195.751,90.544 179.941,98.385 166.023 C 101.405 160.663,108.262 150.147,112.988 143.629 C 114.528 141.506,116.318 139.034,116.967 138.136 C 128.423 122.288,149.639 100.041,165.120 87.647 C 188.870 68.632,194.498 66.151,207.104 69.144 M295.835 155.907 C 305.222 170.581,317.345 194.266,321.645 206.332 C 321.917 207.097,323.033 210.154,324.125 213.127 C 329.159 226.834,333.484 241.854,336.072 254.620 C 337.777 263.027,335.908 273.540,331.808 278.600 L 331.191 279.361 325.673 276.704 C 320.154 274.047,317.413 272.866,308.726 269.400 C 291.010 262.334,272.748 257.004,255.598 253.894 C 251.691 253.186,248.317 252.553,248.101 252.488 C 247.624 252.344,247.818 252.947,245.718 245.097 C 243.507 236.837,240.071 226.543,236.693 218.061 L 234.045 211.412 232.775 210.853 C 232.077 210.546,228.106 208.910,223.951 207.217 C 214.197 203.245,212.819 202.390,212.819 200.317 C 212.819 194.314,244.207 171.995,264.865 163.310 C 274.279 159.352,291.180 153.669,293.947 153.531 C 294.143 153.521,294.993 154.591,295.835 155.907 " stroke="none" fill="#e3f3fc" fill-rule="evenodd"></path><path id="path3" d="M112.124 145.174 C 111.761 145.683,111.533 146.100,111.618 146.100 C 111.703 146.100,112.070 145.683,112.432 145.174 C 112.795 144.664,113.023 144.247,112.938 144.247 C 112.853 144.247,112.486 144.664,112.124 145.174 M108.043 151.274 C 97.539 167.083,88.776 183.464,81.288 201.288 L 80.357 203.504 85.043 205.900 C 87.621 207.218,89.913 208.480,90.137 208.704 C 90.362 208.928,90.918 209.201,91.373 209.311 C 92.370 209.551,96.491 211.575,98.842 212.977 C 100.154 213.761,122.892 225.624,127.722 228.045 C 134.489 231.438,137.222 232.853,138.933 233.853 L 140.974 235.046 142.869 229.569 C 148.313 213.839,161.459 185.626,165.266 181.504 C 165.406 181.352,163.500 180.198,160.983 178.909 C 158.489 177.632,156.100 176.347,155.676 176.053 C 155.251 175.759,152.193 174.167,148.880 172.515 C 141.059 168.615,126.817 161.230,117.812 156.406 C 113.891 154.306,110.507 152.587,110.292 152.587 C 110.078 152.587,109.510 152.355,109.031 152.072 L 108.159 151.557 109.623 149.369 C 111.380 146.745,111.582 146.409,111.409 146.409 C 111.335 146.409,109.821 148.598,108.043 151.274 M219.131 192.819 L 218.224 193.822 219.228 192.915 C 219.780 192.416,220.232 191.964,220.232 191.911 C 220.232 191.673,219.977 191.883,219.131 192.819 M214.048 202.103 C 214.469 202.580,215.670 203.379,216.717 203.879 C 219.392 205.155,219.600 204.986,216.988 203.658 C 215.799 203.053,214.479 202.261,214.054 201.897 L 213.282 201.236 214.048 202.103 M237.092 217.915 C 237.212 218.255,238.192 220.896,239.268 223.783 C 241.507 229.791,244.327 238.817,246.385 246.563 C 247.994 252.619,247.667 252.165,250.770 252.654 C 274.377 256.380,306.487 266.724,328.102 277.566 C 329.585 278.310,330.915 278.919,331.058 278.919 C 331.868 278.919,336.023 269.543,335.632 268.598 C 335.555 268.414,335.482 268.486,335.468 268.758 C 335.445 269.233,320.270 261.892,318.118 260.364 C 317.678 260.052,315.663 258.980,313.640 257.983 C 311.617 256.986,307.598 254.915,304.710 253.381 C 301.822 251.847,295.045 248.348,289.649 245.606 C 284.254 242.865,279.290 240.275,278.619 239.851 C 277.948 239.428,275.767 238.311,273.773 237.371 C 271.780 236.430,269.932 235.472,269.669 235.241 C 269.405 235.010,264.185 232.288,258.069 229.191 C 251.954 226.095,245.061 222.534,242.752 221.279 C 240.443 220.023,238.397 218.996,238.206 218.996 C 238.014 218.996,237.636 218.614,237.365 218.147 C 237.094 217.680,236.971 217.575,237.092 217.915 " stroke="none" fill="#6cbce4" fill-rule="evenodd"></path><path id="path4" d="M143.775 107.259 L 141.622 109.498 143.861 107.344 C 145.093 106.160,146.100 105.152,146.100 105.105 C 146.100 104.878,145.776 105.179,143.775 107.259 M199.375 137.838 L 196.911 140.386 199.459 137.922 C 201.826 135.634,202.149 135.290,201.923 135.290 C 201.877 135.290,200.730 136.436,199.375 137.838 M64.608 255.538 C 64.066 258.290,63.624 261.334,63.626 262.305 L 63.629 264.069 70.656 267.594 C 74.521 269.533,78.495 271.609,79.486 272.207 L 81.289 273.294 85.818 271.423 C 88.309 270.394,91.872 268.963,93.735 268.242 L 97.123 266.933 95.897 266.592 C 95.223 266.404,93.421 265.568,91.892 264.735 C 90.363 263.901,83.969 260.548,77.683 257.284 C 71.398 254.021,66.106 251.167,65.924 250.943 C 65.680 250.642,65.338 251.833,64.608 255.538 M336.466 262.085 C 336.468 263.104,336.526 263.484,336.595 262.929 C 336.663 262.374,336.662 261.540,336.591 261.076 C 336.521 260.611,336.465 261.066,336.466 262.085 " stroke="none" fill="#acd4ec" fill-rule="evenodd"></path><path id="path5" d="M63.629 265.152 C 63.629 268.059,66.518 275.978,68.521 278.563 L 69.083 279.288 74.773 276.603 C 77.903 275.127,80.990 273.706,81.634 273.446 C 82.279 273.186,82.742 272.910,82.665 272.832 C 82.587 272.755,82.257 272.834,81.932 273.008 C 81.460 273.261,80.971 273.103,79.519 272.228 C 77.677 271.119,72.158 268.274,66.641 265.592 L 63.629 264.128 63.629 265.152 " stroke="none" fill="#b4ddf5" fill-rule="evenodd"></path><path id="path6" d="M216.047 195.290 L 214.826 196.602 216.139 195.381 C 217.360 194.246,217.594 193.977,217.360 193.977 C 217.310 193.977,216.719 194.568,216.047 195.290 M63.416 262.085 C 63.418 263.104,63.476 263.484,63.544 262.929 C 63.613 262.374,63.612 261.540,63.541 261.076 C 63.471 260.611,63.414 261.066,63.416 262.085 " stroke="none" fill="#c6e4f9" fill-rule="evenodd"></path><path id="path7" d="M139.912 111.429 L 138.224 113.205 140.000 111.516 C 141.650 109.948,141.918 109.653,141.688 109.653 C 141.640 109.653,140.841 110.452,139.912 111.429 M135.116 116.525 L 134.208 117.529 135.212 116.622 C 136.148 115.776,136.358 115.521,136.120 115.521 C 136.066 115.521,135.615 115.973,135.116 116.525 M204.771 132.432 L 203.707 133.591 204.865 132.526 C 205.943 131.536,206.165 131.274,205.929 131.274 C 205.878 131.274,205.356 131.795,204.771 132.432 M194.112 143.089 L 193.205 144.093 194.208 143.185 C 194.761 142.686,195.212 142.235,195.212 142.182 C 195.212 141.943,194.957 142.153,194.112 143.089 " stroke="none" fill="#74b4dc" fill-rule="evenodd"></path><path id="path8" d="M198.069 68.475 C 198.367 68.553,198.853 68.553,199.151 68.475 C 199.448 68.398,199.205 68.334,198.610 68.334 C 198.015 68.334,197.772 68.398,198.069 68.475 M201.467 68.475 C 201.764 68.553,202.251 68.553,202.548 68.475 C 202.846 68.398,202.602 68.334,202.008 68.334 C 201.413 68.334,201.170 68.398,201.467 68.475 M202.625 134.826 C 201.875 135.591,201.331 136.216,201.416 136.216 C 201.501 136.216,202.184 135.591,202.934 134.826 C 203.685 134.062,204.229 133.436,204.144 133.436 C 204.059 133.436,203.376 134.062,202.625 134.826 M63.392 264.710 C 63.392 265.305,63.456 265.548,63.533 265.251 C 63.611 264.954,63.611 264.467,63.533 264.170 C 63.456 263.873,63.392 264.116,63.392 264.710 M64.733 271.506 C 64.847 271.931,65.068 272.486,65.226 272.741 C 65.425 273.063,65.449 272.969,65.306 272.432 C 65.192 272.008,64.970 271.452,64.813 271.197 C 64.614 270.875,64.589 270.969,64.733 271.506 " stroke="none" fill="#caecfc" fill-rule="evenodd"></path></g></svg>